<svg width="30" height="31" viewBox="0 0 30 31" fill="none" xmlns="http://www.w3.org/2000/svg">
<path d="M15.6393 30.3001C5.75227 30.3001 3.11063 19.65 4.30471 12.6721C4.35668 12.3684 4.74193 12.2809 4.90981 12.5359C5.42965 13.3254 5.89225 14.4658 6.65871 14.3668C7.81072 14.218 8.60883 3.71385 15.4365 0.758258C15.6531 0.664471 15.8798 0.842419 15.8561 1.08388C15.5184 4.50678 17.5073 9.40714 21.0308 9.40714C23.0507 9.40714 24.4327 7.74137 25.1232 6.06846C25.333 5.56029 26.0515 5.62435 26.1718 6.16267C27.4041 11.6774 30.6982 30.3001 15.6393 30.3001Z" fill="#FF8F1F"/>
<path d="M12.1732 20.0305C12.4057 19.8287 12.7587 19.9672 12.8115 20.2762C12.935 20.9993 13.3412 22.2421 14.6735 22.2421C16.2761 22.2421 17.3637 17.6851 17.649 16.3448C17.6959 16.1243 17.9038 15.9746 18.118 16.0196C22.1231 16.8611 24.0705 30.3001 15.2643 30.3001C8.8534 30.3001 10.3058 21.6516 12.1732 20.0305ZM23.1174 5.47668C23.2586 4.33586 21.2432 7.45614 21.2432 7.45614C21.2432 7.45614 22.7797 8.20608 23.1174 5.47668ZM2.81033 22.4905C2.85281 22.0048 2.24818 20.7045 2.14113 21.2194C1.8849 22.4511 2.76785 22.9762 2.81033 22.4905Z" fill="#FFB636"/>
<path d="M18.9361 21.1064C18.7859 20.4592 18.2473 21.9625 18.315 22.5749C18.3827 23.1872 19.2953 22.6549 18.9361 21.1064Z" fill="#FFD469"/>
</svg>
