<svg width="38" height="38" viewBox="0 0 38 38" fill="none" xmlns="http://www.w3.org/2000/svg">
<path d="M35.625 19C35.626 19.4032 35.5226 19.7998 35.3249 20.1512C35.1272 20.5026 34.842 20.7969 34.4969 21.0054L13.11 34.0887C12.7494 34.3095 12.3364 34.43 11.9137 34.4378C11.491 34.4457 11.0738 34.3405 10.7053 34.1332C10.3403 33.9291 10.0363 33.6315 9.82443 33.271C9.61259 32.9104 9.50061 32.5 9.5 32.0818V5.91821C9.50061 5.50004 9.61259 5.08958 9.82443 4.72904C10.0363 4.36849 10.3403 4.07088 10.7053 3.86681C11.0738 3.65951 11.491 3.55435 11.9137 3.56217C12.3364 3.57 12.7494 3.69054 13.11 3.91134L34.4969 16.9946C34.842 17.2031 35.1272 17.4974 35.3249 17.8488C35.5226 18.2002 35.626 18.5968 35.625 19Z" fill="#FDFDFD"/>
</svg>
