<svg width="270" height="270" viewBox="0 0 270 270" fill="none" xmlns="http://www.w3.org/2000/svg">
<path d="M252.64 146.348C252.64 146.348 256.247 118.821 249.687 106.376C243.127 93.9305 222.877 66.4453 180.879 61.4883C158.604 58.8727 143.522 61.8258 129.769 63.45C121.057 64.4836 104.836 59.1258 75.7055 65.7492C54.1055 70.6641 21.3258 89.6695 10.6734 130.634C5.0625 152.213 7.19297 175.521 16.7484 195.159C35.1 232.833 69.1664 242.009 69.1664 242.009L137.637 247.577L220.535 212.52L252.64 146.348Z" fill="#FF2A23"/>
<path d="M173.032 251.184C216.612 242.662 254.285 203.681 260.845 162.401C266.984 123.778 244.413 97.8961 244.413 97.8961C244.413 97.8961 246.987 118.505 242.177 140.463C237.009 163.962 222.054 203.133 174.677 225.323C116.522 252.555 52.8188 234.605 52.8188 234.605C52.8188 234.605 96.1031 266.224 173.032 251.184Z" fill="#DC0D27"/>
<path d="M52.5656 111.291C40.9851 108.295 26.5359 117.049 24.4476 142.678C22.5281 166.155 35.2477 194.442 47.7141 191.067C58.3031 188.198 48.1148 168.581 51.8906 152.487C55.7086 136.392 70.2211 115.868 52.5656 111.291Z" fill="#FED3B0"/>
<path d="M67.2258 97.1367C65.5805 99.2672 69.3984 108.633 88.7836 108.506C108.148 108.38 111.396 102.537 120.023 105.152C128.651 107.768 135.38 118.146 144.914 123.82C158.245 131.752 177.483 129.727 177.356 126.204C177.23 122.66 172.526 124.474 168.476 119.517C164.426 114.539 157.254 101.398 157.254 101.398C157.254 101.398 159.258 95.2383 163.498 95.4703C173.285 95.9977 184.17 94.057 190.16 90.3023C197.332 85.8305 200.032 78.9328 198.724 77.3508C197.416 75.7898 193.345 80.0086 191.13 79.6078C188.916 79.207 174.509 79.4813 174.509 79.4813L157.106 76.6547C157.106 76.6547 159.49 66.4664 164.194 61.2352C168.898 56.0039 176.28 48.8109 176.133 47.9039C175.985 46.9969 170.058 47.7984 170.058 47.7984L151.727 56.1727L138.902 73.0477L114.56 76.1906L91.125 60.4758C91.125 60.4758 77.6883 49.6336 77.0766 49.8867C73.6805 51.2789 78.8484 56.4469 82.7508 62.6906C86.1258 68.1117 86.8219 70.8328 91.3781 74.6086C95.8289 78.2789 103.296 81.9281 103.296 81.9281L97.9383 91.6102C97.9383 91.6102 80.6625 98.4234 77.6461 98.4234C74.6508 98.4445 68.1328 95.9766 67.2258 97.1367Z" fill="#BDCF44"/>
<path d="M121.31 91.2938C128.377 91.8211 133.481 101.208 139.852 107.599C149.154 116.902 156.431 121.753 164.257 123.588C168.18 124.495 177.188 125.993 177.188 125.993C177.188 125.993 178.495 125.086 174.045 122.597C169.594 120.108 166.915 115.341 166.261 113.126C165.607 110.911 163.561 103.634 159.258 97.6008C154.955 91.568 150.061 89.0156 151.622 86.2734C153.183 83.5313 166.683 88.1719 179.677 86.0836C196.826 83.3414 199.441 77.8359 198.661 77.182C197.88 76.5281 187.27 79.6711 181.912 78.4898C176.555 77.3086 171.956 73.6383 163.856 73.6383C158.33 73.6383 152.93 75.6422 151.474 72.6258C150.251 70.0945 154.849 61.6359 158.351 58.4508C166.852 50.7305 176.027 48.8953 176.027 47.8406C176.027 45.668 161.114 44.4445 150.778 52.6922C140.484 60.8977 142.425 71.6766 129.052 71.6766C124.601 71.6766 122.892 70.6219 122.892 70.6219C122.892 70.6219 116.923 65.707 108.949 61.3828C100.976 57.0586 94.9641 58.9781 90.3656 56.7633C85.7883 54.5484 77.6672 48.8109 76.8867 49.9711C76.1063 51.1313 82.9828 58.9781 91.6313 65.3906C100.28 71.8031 109.962 75.0727 107.198 77.6883C104.456 80.3039 99.8789 82.0125 95.5547 85.282C91.2305 88.5516 87.4336 93.2555 82.2024 94.9641C76.9711 96.6727 68.3649 95.4703 67.1836 96.9047C66.0024 98.3391 76.2961 103.296 92.3906 100.301C108.443 97.3055 108.485 90.3445 121.31 91.2938Z" fill="#94A61D"/>
<path d="M137.362 10.4203C133.84 10.2516 129.389 13.0359 129.389 13.0359C129.389 13.0359 122.934 20.9039 120.382 40.4367C119.201 49.4648 120.487 61.5937 120.234 68.2805C119.981 74.9461 118.526 77.4352 118.927 80.8523C119.327 84.2484 122.892 88.0875 131.14 88.0031C137.763 87.9398 141.18 82.8141 141.054 80.9789C140.927 79.1437 135.253 60.4336 136.856 43.9383C138.354 28.6031 143.944 18.0141 144.176 15.7992C144.302 14.5969 142.72 10.6734 137.362 10.4203Z" fill="#728035"/>
</svg>
