<svg width="30" height="31" viewBox="0 0 30 31" fill="none" xmlns="http://www.w3.org/2000/svg">
<path d="M23.1037 21.6574C21.3952 22.0813 19.6116 22.0608 17.9126 21.5976C16.2136 21.1344 14.6523 20.2431 13.3685 19.0034C12.0847 17.7637 11.1185 16.2144 10.5564 14.4941C9.99425 12.7739 9.85376 10.9364 10.1475 9.1463C10.1035 9.19163 10.0563 9.23352 10.0062 9.27159C9.65624 9.54672 9.21874 9.64876 8.34374 9.85284L7.54999 10.0388C4.47499 10.7583 2.93749 11.1174 2.57124 12.3328C2.20624 13.547 3.25374 14.8141 5.34999 17.3471L5.89249 18.002C6.48749 18.7214 6.78624 19.0818 6.91999 19.5261C7.05374 19.9718 7.00874 20.4523 6.91874 21.412L6.83624 22.2864C6.51999 25.6667 6.36124 27.3562 7.31874 28.1067C8.27624 28.8571 9.71624 28.1738 12.5937 26.8034L13.34 26.4495C14.1575 26.0594 14.5662 25.8656 15 25.8656C15.4337 25.8656 15.8425 26.0594 16.6612 26.4495L17.405 26.8034C20.2837 28.1726 21.7237 28.8571 22.68 28.108C23.6387 27.3562 23.48 25.6667 23.1637 22.2864L23.1037 21.6574Z" fill="#4AD1FB"/>
<path opacity="0.5" d="M11.4412 6.98531L11.0312 7.74481C10.5812 8.57923 10.3562 8.99644 10.0062 9.27156C10.0562 9.23281 10.1033 9.19105 10.1475 9.14627C9.85368 10.9365 9.99417 12.7741 10.5564 14.4945C11.1186 16.2149 12.0849 17.7643 13.3689 19.0041C14.6528 20.2438 16.2143 21.1351 17.9135 21.5981C19.6126 22.0612 21.3964 22.0815 23.105 21.6574L23.08 21.4119C22.9912 20.4522 22.9462 19.9717 23.08 19.5261C23.2137 19.0818 23.5112 18.7214 24.1075 18.0019L24.65 17.3471C26.7462 14.8154 27.7937 13.5483 27.4275 12.3328C27.0625 11.1174 25.525 10.757 22.45 10.0388L21.655 9.85281C20.7812 9.64873 20.3437 9.54669 19.9925 9.27156C19.6425 8.99644 19.4175 8.57923 18.9675 7.74481L18.5587 6.98531C16.975 4.05065 16.1837 2.58331 15 2.58331C13.8162 2.58331 13.025 4.05065 11.4412 6.98531Z" fill="#4AD1FB"/>
</svg>
