<svg width="145" height="45" viewBox="0 0 145 45" fill="none" xmlns="http://www.w3.org/2000/svg">
<path d="M22.4 14.52C22.4 15 21.9867 15.7067 21.16 16.64C20.1733 17.76 17.6 21.2 13.44 26.96C13.4933 30.4 13.6 32.76 13.76 34.04C13.84 34.84 13.88 35.4133 13.88 35.76C13.88 36.64 13.72 37.24 13.4 37.56C13.1067 37.8533 12.5867 38 11.84 38C11.28 38 10.7467 37.84 10.24 37.52C9.76 37.1733 9.52 36.76 9.52 36.28C9.52 34.3333 9.48 31.48 9.4 27.72C9.4 27.56 9.29333 27.2933 9.08 26.92C8.86667 26.5467 8.73333 26.3067 8.68 26.2C8.12 25.2133 7.41333 24.12 6.56 22.92C5.73333 21.6933 5.01333 20.7733 4.4 20.16C3.22667 18.9867 2.30667 17.9333 1.64 17C0.973333 16.04 0.64 15.36 0.64 14.96C0.64 14.4 0.893333 13.96 1.4 13.64C1.93333 13.2933 2.50667 13.12 3.12 13.12C3.46667 13.12 3.82667 13.2133 4.2 13.4C4.6 13.5867 4.92 13.8533 5.16 14.2C6.73333 16.5467 8.13333 18.4933 9.36 20.04L11.24 22.48C12.3867 21.3067 13.3867 20.1467 14.24 19C15.12 17.8267 16.08 16.44 17.12 14.84L17.8 13.8C18.3067 13.1067 19.0933 12.76 20.16 12.76C20.6667 12.76 21.16 12.9067 21.64 13.2C22.1467 13.4933 22.4 13.9333 22.4 14.52ZM42.1022 24.52C41.8889 24.52 41.6889 24.44 41.5022 24.28C41.3422 24.0933 41.2622 23.88 41.2622 23.64C41.2622 23.0267 41.5289 22.4533 42.0622 21.92C42.2222 21.84 42.5422 21.7067 43.0222 21.52C43.5022 21.3333 43.9289 21.24 44.3022 21.24C45.3155 21.24 46.1422 21.52 46.7822 22.08C47.4222 22.6133 47.7422 23.3867 47.7422 24.4C47.7422 24.6933 47.6889 25.32 47.5822 26.28C47.4755 27.4 47.4222 28.2667 47.4222 28.88C47.4222 30.7467 47.6755 32.2533 48.1822 33.4C48.3689 33.7733 48.6622 34.0667 49.0622 34.28C49.4622 34.4933 49.8222 34.6 50.1422 34.6C50.9155 34.6 51.5422 34.4667 52.0222 34.2C52.5022 33.9333 53.0222 33.5067 53.5822 32.92C54.1422 32.3333 54.5022 31.6667 54.6622 30.92C54.8489 30.1733 54.9822 29.1467 55.0622 27.84C55.1155 26.9867 55.1689 26.36 55.2222 25.96C55.3555 24.68 55.4222 23.5867 55.4222 22.68C55.4222 22.0933 55.5822 21.6133 55.9022 21.24C56.2222 20.84 56.6622 20.64 57.2222 20.64C57.5422 20.64 57.9022 20.7467 58.3022 20.96C58.7289 21.1467 59.0089 21.3733 59.1422 21.64C59.3022 21.9067 59.3822 22.3467 59.3822 22.96C59.3822 23.28 59.3422 23.5867 59.2622 23.88C59.0755 24.5467 58.9822 25.3467 58.9822 26.28L59.0222 28.36C59.0222 30.2533 59.1555 31.6533 59.4222 32.56C59.5555 32.9867 59.7422 33.4267 59.9822 33.88C60.2222 34.3067 60.4489 34.6667 60.6622 34.96C61.1955 35.5467 61.5422 35.96 61.7022 36.2C61.8622 36.4133 61.9422 36.6267 61.9422 36.84C61.9422 37.16 61.7822 37.4667 61.4622 37.76C61.1689 38.0267 60.8489 38.16 60.5022 38.16C59.5155 38.16 58.6622 37.8267 57.9422 37.16C57.2222 36.4933 56.6889 35.6267 56.3422 34.56C55.4355 35.6 54.5955 36.44 53.8222 37.08C53.2889 37.4533 52.6355 37.7333 51.8622 37.92C51.0889 38.08 50.3155 38.16 49.5422 38.16C48.5022 38.16 47.4489 37.7333 46.3822 36.88C45.3155 36.0267 44.5955 35.04 44.2222 33.92C44.1955 33.8667 44.1155 33.6533 43.9822 33.28C43.8755 32.9067 43.8222 32.3467 43.8222 31.6C43.8222 30.6133 43.8755 29.3733 43.9822 27.88C44.0622 26.92 44.1022 26.04 44.1022 25.24C44.1022 25 44.0089 24.8 43.8222 24.64C43.6622 24.48 43.4755 24.4 43.2622 24.4C43.1022 24.4 42.9155 24.4267 42.7022 24.48C42.5155 24.5067 42.3155 24.52 42.1022 24.52ZM70.8916 36.4C70.8916 36.8533 70.7182 37.2533 70.3716 37.6C70.0249 37.9467 69.5982 38.12 69.0916 38.12C68.2916 38.12 67.7049 37.9733 67.3316 37.68C66.9582 37.36 66.7716 36.7867 66.7716 35.96C66.7716 34.9733 66.7449 33.68 66.6916 32.08C66.6382 30.7467 66.6116 29.6267 66.6116 28.72C66.6116 28.2933 66.6382 27.7333 66.6916 27.04C66.7449 26.4 66.7716 25.92 66.7716 25.6C66.6916 25.0933 66.4916 24.68 66.1716 24.36C65.8516 24.0133 65.4382 23.84 64.9316 23.84C64.6916 23.84 64.4916 23.7333 64.3316 23.52C64.1716 23.28 64.0916 23.04 64.0916 22.8C64.0916 22.1867 64.3316 21.72 64.8116 21.4C65.3182 21.08 65.9182 20.92 66.6116 20.92C68.0516 20.92 69.0516 21.7733 69.6116 23.48C70.3049 22.68 71.0916 22.04 71.9716 21.56C72.8782 21.0533 73.7449 20.8 74.5716 20.8C75.5582 20.8 76.4516 21.0667 77.2516 21.6C78.0782 22.1333 78.4916 22.8533 78.4916 23.76C78.4916 24.2667 78.2649 24.7867 77.8116 25.32C77.3849 25.8533 76.9449 26.12 76.4916 26.12C76.2516 26.12 76.0382 26.0667 75.8516 25.96C75.6916 25.8267 75.4916 25.64 75.2516 25.4C74.9849 25.1333 74.7582 24.9467 74.5716 24.84C74.3849 24.7067 74.1716 24.64 73.9316 24.64C73.5049 24.64 73.1049 24.7067 72.7316 24.84C72.3582 24.9733 72.1049 25.1333 71.9716 25.32C71.5449 25.9867 71.2249 26.5867 71.0116 27.12C70.8249 27.6533 70.7316 28.2267 70.7316 28.84C70.7316 29.2933 70.7182 29.6533 70.6916 29.92L70.6516 32.2C70.6516 32.5467 70.6649 32.9333 70.6916 33.36C70.7182 33.7867 70.7449 34.1067 70.7716 34.32C70.8516 35.04 70.8916 35.7333 70.8916 36.4ZM92.07 29.36C92.2833 29.4933 92.6967 29.7467 93.31 30.12C93.95 30.4667 94.3767 30.88 94.59 31.36C94.8033 31.84 94.91 32.5067 94.91 33.36C94.91 34.32 94.63 35.1733 94.07 35.92C93.51 36.64 92.79 37.2 91.91 37.6C91.2967 37.8667 90.63 38.0267 89.91 38.08C89.2167 38.1333 88.3767 38.16 87.39 38.16C86.8567 38.16 86.1633 38.08 85.31 37.92C84.4833 37.76 83.91 37.6133 83.59 37.48C82.7367 37 82.0167 36.44 81.43 35.8C80.8433 35.16 80.55 34.5067 80.55 33.84C80.55 33.3067 80.7233 32.88 81.07 32.56C81.4167 32.24 81.87 32.08 82.43 32.08C82.7233 32.08 83.0033 32.16 83.27 32.32C83.5633 32.4533 83.7633 32.6133 83.87 32.8C84.1633 33.4933 84.6567 34.0133 85.35 34.36C86.0433 34.7067 86.75 34.88 87.47 34.88C90.0033 34.88 91.27 34.4267 91.27 33.52C91.27 33.28 91.2033 33.0933 91.07 32.96C90.9633 32.8 90.8033 32.64 90.59 32.48C90.2433 32.24 89.75 31.9867 89.11 31.72C88.4967 31.4533 87.95 31.2533 87.47 31.12C86.3767 30.88 85.31 30.52 84.27 30.04C83.31 29.56 82.5233 28.9333 81.91 28.16C81.2967 27.36 80.99 26.3867 80.99 25.24C80.99 24.5467 81.2433 23.8667 81.75 23.2C82.2833 22.5067 82.8967 21.9867 83.59 21.64C84.07 21.4533 84.8567 21.2533 85.95 21.04C87.0433 20.8267 87.79 20.72 88.19 20.72C88.8033 20.72 89.47 20.7867 90.19 20.92C90.91 21.0267 91.4567 21.2133 91.83 21.48C92.55 21.9067 93.1367 22.36 93.59 22.84C94.0433 23.2933 94.27 23.8133 94.27 24.4C94.27 24.6933 94.2033 25.0133 94.07 25.36C93.9367 25.68 93.7767 25.88 93.59 25.96C93.19 26.1467 92.7233 26.24 92.19 26.24C91.95 26.24 91.75 26.1733 91.59 26.04C91.4567 25.9067 91.27 25.6933 91.03 25.4C90.7367 24.9467 90.4567 24.68 90.19 24.6C89.87 24.52 89.4033 24.4267 88.79 24.32C88.1767 24.1867 87.7633 24.12 87.55 24.12C86.8833 24.12 86.2433 24.2533 85.63 24.52C85.0433 24.7867 84.75 25.1467 84.75 25.6C84.75 26.1333 85.19 26.5867 86.07 26.96C86.63 27.2267 87.2433 27.4533 87.91 27.64C88.6033 27.8267 89.03 27.9467 89.19 28C89.5633 28.08 90.0433 28.2667 90.63 28.56C91.2433 28.8533 91.7233 29.12 92.07 29.36ZM98.2825 28.84C98.2825 27.2133 98.6425 25.8667 99.3625 24.8C100.083 23.7067 101.083 22.68 102.363 21.72C102.736 21.4533 103.363 21.2267 104.243 21.04C105.123 20.8267 105.896 20.72 106.562 20.72C107.363 20.72 108.203 20.8933 109.083 21.24C109.989 21.56 110.723 21.9333 111.283 22.36C112.269 23.08 112.949 23.92 113.323 24.88C113.696 25.8133 113.883 26.9333 113.883 28.24C113.883 28.8 113.563 29.3467 112.923 29.88C112.309 30.3867 111.643 30.64 110.923 30.64L109.403 30.6C108.629 30.6 107.523 30.6267 106.083 30.68L105.243 30.72C104.656 30.7733 104.216 30.8 103.923 30.8C103.496 30.8 102.909 30.7467 102.163 30.64C102.269 31.8933 102.736 32.88 103.563 33.6C104.389 34.2933 105.283 34.64 106.243 34.64C107.923 34.64 109.096 34.3067 109.763 33.64C110.323 33.24 110.696 32.9867 110.883 32.88C111.069 32.7733 111.363 32.72 111.763 32.72C112.189 32.72 112.563 32.92 112.883 33.32C113.203 33.72 113.363 34.12 113.363 34.52C113.363 34.9733 113.083 35.44 112.523 35.92C111.989 36.3733 111.256 36.8533 110.323 37.36C109.816 37.5733 109.123 37.76 108.243 37.92C107.363 38.08 106.629 38.16 106.043 38.16C105.109 38.16 104.069 37.8933 102.923 37.36C101.776 36.8 100.923 36.1867 100.363 35.52C99.8025 34.8533 99.3092 33.9067 98.8825 32.68C98.4825 31.4533 98.2825 30.1733 98.2825 28.84ZM106.243 27.76C108.136 27.76 109.523 27.6933 110.403 27.56C110.349 26.7867 110.109 26.16 109.683 25.68C109.256 25.1733 108.669 24.7467 107.923 24.4C107.683 24.2933 107.469 24.2133 107.283 24.16C107.096 24.1067 106.883 24.08 106.643 24.08C105.416 24.08 104.376 24.4133 103.523 25.08C102.696 25.7467 102.203 26.6 102.043 27.64C103.376 27.72 104.776 27.76 106.243 27.76ZM122.147 31.8C122.147 32.8133 122.294 33.6 122.587 34.16C122.907 34.6933 123.307 34.96 123.787 34.96C124.054 34.96 124.307 34.9467 124.547 34.92C124.787 34.8667 125.027 34.84 125.267 34.84C125.534 34.84 125.76 34.9733 125.947 35.24C126.16 35.5067 126.267 35.8 126.267 36.12C126.267 36.76 125.96 37.2667 125.347 37.64C124.76 37.9867 123.96 38.16 122.947 38.16C122.227 38.16 121.494 37.9467 120.747 37.52C120.027 37.0667 119.427 36.3733 118.947 35.44C118.467 34.48 118.227 33.2933 118.227 31.88C118.227 28.84 118.28 26.2667 118.387 24.16C118.52 21.6533 118.587 18.4933 118.587 14.68C118.587 13.48 118.654 12.64 118.787 12.16C118.947 11.7867 119.2 11.5067 119.547 11.32C119.92 11.1067 120.307 11 120.707 11C121.107 11 121.454 11.0667 121.747 11.2C122.067 11.3333 122.28 11.5467 122.387 11.84C122.494 12.16 122.56 12.48 122.587 12.8C122.64 13.0933 122.667 13.52 122.667 14.08C122.667 15.1733 122.627 16.2267 122.547 17.24C122.494 18.4667 122.467 19.36 122.467 19.92C122.254 24.6133 122.147 28.5733 122.147 31.8ZM140.715 17.16C140.342 17.16 139.982 17.0667 139.635 16.88C139.288 16.6933 139.048 16.4133 138.915 16.04C138.648 15.32 138.355 14.8133 138.035 14.52C137.742 14.2 137.382 14.04 136.955 14.04C136.688 14.04 136.435 14.24 136.195 14.64C135.982 15.04 135.822 15.6667 135.715 16.52C135.528 18.28 135.435 19.6267 135.435 20.56C135.835 20.64 136.395 20.68 137.115 20.68C137.488 20.68 137.968 20.6533 138.555 20.6L139.635 20.56C140.115 20.56 140.488 20.6533 140.755 20.84C141.022 21.0267 141.155 21.3333 141.155 21.76C141.155 22.3733 140.968 22.88 140.595 23.28C140.222 23.68 139.782 23.88 139.275 23.88C137.355 23.88 136.062 23.9733 135.395 24.16C135.395 25.76 135.475 28.0533 135.635 31.04C135.635 31.4933 135.662 32.1467 135.715 33L135.875 36.08C135.928 36.8533 135.848 37.4 135.635 37.72C135.448 38.0133 135.035 38.16 134.395 38.16C133.222 38.16 132.462 37.4533 132.115 36.04C131.902 35.0267 131.728 33.5867 131.595 31.72C131.488 29.8267 131.435 28.16 131.435 26.72C131.435 25.9733 131.475 25.1067 131.555 24.12C131.502 24.0933 131.355 24.08 131.115 24.08C130.875 24.08 130.702 24.0933 130.595 24.12C129.795 24.1733 129.208 24.2 128.835 24.2C128.595 24.2 128.355 24.0267 128.115 23.68C127.875 23.3333 127.755 22.9333 127.755 22.48C127.755 22.2133 127.848 21.9733 128.035 21.76C128.222 21.52 128.448 21.3467 128.715 21.24C129.115 21.0267 129.688 20.92 130.435 20.92H131.635C131.635 17.1867 132.048 14.5867 132.875 13.12C133.675 11.7333 134.995 11.04 136.835 11.04C137.688 11.04 138.502 11.2133 139.275 11.56C140.075 11.9067 140.715 12.3867 141.195 13C141.702 13.6133 141.955 14.3067 141.955 15.08C141.955 15.9067 141.848 16.4667 141.635 16.76C141.422 17.0267 141.115 17.16 140.715 17.16Z" fill="#FDFDFD"/>
<path d="M28.554 39.3904C19.9853 39.3904 17.6959 30.1145 18.7308 24.0369C18.7758 23.7724 19.1097 23.6962 19.2552 23.9183C19.7057 24.606 20.1066 25.5992 20.7709 25.513C21.7693 25.3834 22.461 16.2346 28.3783 13.6604C28.5661 13.5787 28.7625 13.7337 28.7419 13.944C28.4493 16.9252 30.173 21.1933 33.2267 21.1933C34.9773 21.1933 36.175 19.7424 36.7735 18.2854C36.9553 17.8428 37.578 17.8986 37.6823 18.3674C38.7503 23.1706 41.6051 39.3904 28.554 39.3904Z" fill="#FF8F1F"/>
<path d="M25.5501 30.4459C25.7516 30.2701 26.0575 30.3908 26.1033 30.6599C26.2103 31.2897 26.5623 32.3721 27.717 32.3721C29.106 32.3721 30.0486 28.4031 30.2958 27.2358C30.3365 27.0438 30.5167 26.9133 30.7022 26.9525C34.1734 27.6854 35.8611 39.3904 28.229 39.3904C22.673 39.3904 23.9317 31.8578 25.5501 30.4459ZM35.0351 17.77C35.1574 16.7764 33.4108 19.494 33.4108 19.494C33.4108 19.494 34.7424 20.1472 35.0351 17.77ZM17.4356 32.5885C17.4724 32.1655 16.9484 31.033 16.8557 31.4814C16.6336 32.5542 17.3988 33.0115 17.4356 32.5885Z" fill="#FFB636"/>
<path d="M31.4113 31.383C31.2811 30.8193 30.8143 32.1287 30.873 32.662C30.9316 33.1953 31.7226 32.7317 31.4113 31.383Z" fill="#FFD469"/>
</svg>
