<svg width="36" height="36" viewBox="0 0 36 36" fill="none" xmlns="http://www.w3.org/2000/svg">
<path d="M5.667 5.4825C5.3955 6.0225 5.262 6.6915 4.995 8.0265L4.098 12.5115C3.97088 13.123 3.96989 13.754 4.09511 14.3659C4.22033 14.9778 4.46911 15.5578 4.82624 16.0702C5.18336 16.5826 5.6413 17.0167 6.17204 17.346C6.70277 17.6753 7.29513 17.8928 7.91284 17.9852C8.53055 18.0776 9.16063 18.043 9.76449 17.8834C10.3684 17.7239 10.9333 17.4428 11.4247 17.0573C11.9162 16.6718 12.3238 16.1901 12.6226 15.6416C12.9214 15.0931 13.1051 14.4894 13.1625 13.8675L13.2675 12.8325C13.2107 13.4908 13.2917 14.1536 13.5056 14.7788C13.7194 15.4039 14.0613 15.9776 14.5094 16.4631C14.9575 16.9486 15.502 17.3354 16.108 17.5985C16.7141 17.8617 17.3683 17.9956 18.029 17.9916C18.6897 17.9877 19.3423 17.8459 19.9451 17.5754C20.5479 17.3049 21.0877 16.9117 21.5299 16.4208C21.9721 15.9299 22.3071 15.3522 22.5134 14.7245C22.7197 14.0968 22.7928 13.433 22.728 12.7755L22.8375 13.8675C22.8949 14.4894 23.0786 15.0931 23.3774 15.6416C23.6762 16.1901 24.0838 16.6718 24.5753 17.0573C25.0667 17.4428 25.6317 17.7239 26.2355 17.8834C26.8394 18.043 27.4695 18.0776 28.0872 17.9852C28.7049 17.8928 29.2972 17.6753 29.828 17.346C30.3587 17.0167 30.8167 16.5826 31.1738 16.0702C31.5309 15.5578 31.7797 14.9778 31.9049 14.3659C32.0301 13.754 32.0291 13.123 31.902 12.5115L31.005 8.0265C30.738 6.6915 30.6045 6.024 30.333 5.4825C30.0501 4.91856 29.6518 4.4204 29.1639 4.02038C28.676 3.62035 28.1095 3.32738 27.501 3.1605C26.916 3 26.235 3 24.873 3H11.127C9.765 3 9.084 3 8.499 3.1605C7.89055 3.32738 7.324 3.62035 6.83611 4.02038C6.34822 4.4204 5.9499 4.91856 5.667 5.4825ZM27.4035 20.25C28.5755 20.253 29.7283 19.9527 30.75 19.3785V21C30.75 26.6565 30.75 29.4855 28.992 31.242C27.5775 32.658 25.47 32.9325 21.75 32.9865V27.75C21.75 26.3475 21.75 25.647 21.4485 25.125C21.251 24.783 20.967 24.499 20.625 24.3015C20.103 24 19.4025 24 18 24C16.5975 24 15.897 24 15.375 24.3015C15.033 24.499 14.749 24.783 14.5515 25.125C14.25 25.647 14.25 26.3475 14.25 27.75V32.9865C10.53 32.9325 8.4225 32.6565 7.008 31.242C5.25 29.4855 5.25 26.6565 5.25 21V19.3785C6.27212 19.953 7.4255 20.2532 8.598 20.25C10.3315 20.2511 12.0004 19.5925 13.266 18.408C14.5556 19.5965 16.2463 20.2543 18 20.25C19.7537 20.2543 21.4444 19.5965 22.734 18.408C23.9996 19.5925 25.67 20.2511 27.4035 20.25Z" fill="#373435"/>
</svg>
