<svg width="44" height="44" viewBox="0 0 44 44" fill="none" xmlns="http://www.w3.org/2000/svg">
<path fill-rule="evenodd" clip-rule="evenodd" d="M13.4658 7.36451C19.1379 6.73649 24.862 6.73649 30.5342 7.36451C33.6747 7.71651 36.2083 10.1897 36.5768 13.3412C37.249 19.0942 37.249 24.9058 36.5768 30.6588C36.2083 33.8103 33.6747 36.2835 30.5342 36.6355C24.862 37.2635 19.1379 37.2635 13.4658 36.6355C10.3253 36.2835 7.79166 33.8103 7.42316 30.6588C6.75116 24.9065 6.75116 19.0954 7.42316 13.343C7.60955 11.8119 8.30752 10.3887 9.40395 9.30389C10.5004 8.2191 11.931 7.53637 13.464 7.36634M22 12.8462C22.3647 12.8462 22.7144 12.991 22.9723 13.2489C23.2301 13.5068 23.375 13.8565 23.375 14.2212V20.625H29.7788C30.1435 20.625 30.4932 20.7699 30.7511 21.0277C31.009 21.2856 31.1538 21.6353 31.1538 22C31.1538 22.3647 31.009 22.7144 30.7511 22.9723C30.4932 23.2301 30.1435 23.375 29.7788 23.375H23.375V29.7788C23.375 30.1435 23.2301 30.4932 22.9723 30.7511C22.7144 31.009 22.3647 31.1538 22 31.1538C21.6353 31.1538 21.2856 31.009 21.0277 30.7511C20.7699 30.4932 20.625 30.1435 20.625 29.7788V23.375H14.2212C13.8565 23.375 13.5067 23.2301 13.2489 22.9723C12.991 22.7144 12.8462 22.3647 12.8462 22C12.8462 21.6353 12.991 21.2856 13.2489 21.0277C13.5067 20.7699 13.8565 20.625 14.2212 20.625H20.625V14.2212C20.625 13.8565 20.7699 13.5068 21.0277 13.2489C21.2856 12.991 21.6353 12.8462 22 12.8462Z" fill="#373435"/>
</svg>
